#!OML:ASF F:\VICON\USERDATA\INSTALL\rory3\rory3.ASF
:FULLY-SPECIFIED
:DEGREES
959
root 4.28297 28.761 -2.77441 -169.69 -38.6829 176.179
lowerback 11.0529 -3.08775 -3.33013
upperback 1.82933 -4.53825 1.72257
thorax -3.87061 -2.2529 4.30595
lowerneck -15.5266 0.604885 -12.9979
upperneck 39.5133 -0.161149 4.76376
head 16.9685 -2.45817 4.11754
rclavicle 2.64384e-014 -2.34566e-014
rhumerus -22.3133 22.7879 -88.3966
rradius 100.085
rwrist 62.6231
rhand -29.752 -11.9678
rfingers 7.12502
rthumb -3.07793 -41.9254
lclavicle 2.64384e-014 -2.34566e-014
lhumerus 32.9239 -23.8457 70.9331
lradius 87.8633
lwrist -25.2791
lhand -30.5682 18.2518
lfingers 7.12502
lthumb -3.86621 48.1965
rfemur -16.7963 -7.83018 26.3992
rtibia 23.1786
rfoot -12.6671 -8.99301
rtoes 14.0894
lfemur -48.1093 13.1653 -15.9592
ltibia 84.3092
lfoot -13.8192 -14.8984
ltoes -29.1883
960
root 4.2698 28.7299 -2.76657 -169.518 -38.457 175.981
lowerback 11.1576 -3.19786 -3.32884
upperback 1.73608 -4.68509 1.69937
thorax -4.01414 -2.31828 4.31226
lowerneck -15.5563 0.823902 -12.8857
upperneck 39.6021 0.147154 4.69168
head 16.9807 -2.33952 4.1193
rclavicle -8.75646e-014 2.42517e-014
rhumerus -22.2229 23.2137 -88.715
rradius 100.424
rwrist 62.1653
rhand -28.9168 -11.5307
rfingers 7.12502
rthumb -2.27136 -41.4984
lclavicle -8.75646e-014 2.42517e-014
lhumerus 30.6482 -23.534 71.7145
lradius 89.5256
lwrist -25.3707
lhand -35.5736 18.553
lfingers 7.12502
lthumb -8.69833 48.3538
rfemur -17.2591 -7.76312 26.1897
rtibia 24.0775
rfoot -13.1331 -8.60782
rtoes 13.0088
lfemur -47.0536 12.6954 -16.2524
ltibia 82.3154
lfoot -13.762 -15.7002
ltoes -28.3722
961
root 4.25302 28.7028 -2.76216 -169.349 -38.2117 175.775
lowerback 11.1497 -3.20809 -3.22845
upperback 1.76172 -4.69092 1.61173
thorax -3.99798 -2.32393 4.16333
lowerneck -15.6053 0.8134 -12.6637
upperneck 39.496 0.17672 4.4746
head 16.9346 -2.31007 3.98409
rclavicle -3.19049e-014 2.66371e-014
rhumerus -21.8836 23.4611 -88.8354
rradius 100.586
rwrist 62.2855
rhand -28.4355 -11.9771
rfingers 7.12502
rthumb -1.8065 -41.9492
lclavicle -3.19049e-014 2.66371e-014
lhumerus 28.6033 -23.7488 72.2131
lradius 91.2176
lwrist -26.2972
lhand -38.6723 22.8952
lfingers 7.12502
lthumb -11.6876 52.5492
rfemur -17.7716 -7.747 25.9491
rtibia 25.0617
rfoot -13.6392 -8.12824
rtoes 13.0482
lfemur -45.974 12.2956 -16.6157
ltibia 80.2229
lfoot -13.7191 -16.4784
ltoes -27.6455
962
root 4.22946 28.6747 -2.76299 -169.079 -38.069 175.665
lowerback 10.8483 -3.20139 -2.9766
upperback 1.78375 -4.64497 1.55087
thorax -3.83774 -2.30853 3.92897
lowerneck -15.6654 0.73497 -12.5642
upperneck 39.5187 0.0241666 4.48245
head 16.9816 -2.35632 3.94527
rclavicle 1.11717e-013 -3.18055e-014
rhumerus -21.557 23.1981 -88.7952
rradius 100.469
rwrist 63.1802
rhand -29.0245 -11.7777
rfingers 7.12502
rthumb -2.37539 -41.7442
lclavicle 1.11717e-013 -3.18055e-014
lhumerus 26.5399 -23.9463 72.8639
lradius 93.0152
lwrist -26.2459
lhand -42.992 25.2674
lfingers 7.12502
lthumb -15.8506 54.6386
rfemur -18.3553 -7.93615 25.864
rtibia 26.109
rfoot -14.1874 -7.57051
rtoes 13.3396
lfemur -45.0918 11.8208 -16.9636
ltibia 78.0962
lfoot -13.6423 -17.1404
ltoes -26.921
963
root 4.2054 28.643 -2.76097 -168.715 -37.9774 175.56
lowerback 10.5989 -3.25486 -2.7053
upperback 1.68187 -4.67367 1.50128
thorax -3.82967 -2.32163 3.71526
lowerneck -15.5495 0.78339 -12.3941
upperneck 39.5352 -0.00915341 4.50202
head 16.9617 -2.34797 3.91599
rclavicle -2.18663e-014 2.38542e-015
rhumerus -21.5071 23.1364 -88.8955
rradius 100.587
rwrist 63.4965
rhand -28.9658 -11.6207
rfingers 7.12502
rthumb -2.31865 -41.5878
lclavicle -2.18663e-014 2.38542e-015
lhumerus 24.2517 -24.1368 73.5959
lradius 94.6905
lwrist -26.4822
lhand -45.463 28.0732
lfingers 7.12502
lthumb -18.2291 57.239
rfemur -18.9808 -8.29702 25.8441
rtibia 27.0749
rfoot -14.6528 -6.92603
rtoes 14.7418
lfemur -44.4375 11.3684 -17.4019
ltibia 75.9219
lfoot -13.5317 -17.6565
ltoes -26.7542
